<?xml version="1.0" standalone="no"?>
<!DOCTYPE svg PUBLIC "-//W3C//DTD SVG 20010904//EN"
 "http://www.w3.org/TR/2001/REC-SVG-20010904/DTD/svg10.dtd">
<svg version="1.0" xmlns="http://www.w3.org/2000/svg"
 width="1000.000000pt" height="1000.000000pt" viewBox="0 0 1000.000000 1000.000000"
 preserveAspectRatio="xMidYMid meet">
<metadata>
Created by potrace 1.14, written by Peter Selinger 2001-2017
</metadata>
<g transform="translate(0.000000,1000.000000) scale(0.100000,-0.100000)"
fill="#000000" stroke="none">
<path d="M4749 9966 c-2 -2 -53 -7 -114 -11 -60 -3 -123 -8 -140 -10 -16 -3
-52 -7 -80 -10 -159 -17 -382 -56 -570 -100 -11 -3 -30 -7 -42 -10 -185 -42
-563 -168 -749 -250 -19 -8 -51 -22 -71 -31 -21 -10 -79 -37 -129 -60 -50 -24
-96 -44 -102 -44 -6 0 -12 -3 -14 -7 -1 -5 -28 -21 -58 -37 -96 -50 -164 -88
-192 -107 -14 -11 -29 -19 -33 -19 -7 0 -312 -199 -338 -220 -6 -5 -34 -26
-62 -47 -283 -209 -531 -434 -741 -669 -38 -42 -76 -85 -84 -93 -24 -26 -193
-240 -237 -301 -200 -276 -394 -608 -518 -885 -14 -33 -31 -68 -36 -78 -18
-34 -126 -311 -148 -382 -13 -38 -26 -79 -31 -90 -18 -38 -101 -356 -124 -470
-16 -76 -21 -107 -31 -167 -3 -18 -8 -40 -10 -48 -2 -8 -7 -40 -10 -70 -4 -30
-8 -57 -10 -60 -1 -3 -6 -36 -9 -75 -4 -38 -9 -81 -11 -95 -2 -14 -7 -61 -10
-105 -3 -44 -8 -105 -11 -135 -7 -83 -7 -473 0 -575 8 -107 25 -290 31 -325 2
-14 7 -50 10 -80 8 -67 50 -301 71 -390 9 -36 18 -76 20 -89 27 -136 156 -537
228 -706 54 -126 129 -288 180 -385 85 -164 94 -180 121 -225 14 -22 31 -51
38 -65 6 -14 14 -27 17 -30 3 -3 27 -39 52 -80 111 -179 262 -381 448 -599 76
-90 370 -386 455 -458 488 -417 904 -672 1460 -895 194 -78 494 -177 585 -194
14 -3 59 -14 100 -24 41 -10 91 -22 110 -25 19 -3 67 -12 106 -20 39 -8 95
-17 125 -21 30 -3 57 -8 60 -10 6 -4 327 -41 359 -42 8 0 60 -4 115 -8 181
-12 550 -7 700 10 22 3 69 8 105 12 120 11 187 21 300 41 47 8 101 17 120 20
19 2 53 9 75 15 22 6 49 12 61 14 11 1 38 7 60 13 21 5 50 12 64 15 130 24
538 162 760 258 122 53 425 202 450 222 8 6 35 22 60 35 123 65 431 272 564
379 23 17 46 36 51 40 6 4 53 43 105 86 257 215 525 496 745 781 78 101 285
399 285 409 0 2 25 46 56 97 145 241 302 579 401 864 19 55 37 107 40 115 3 8
7 20 9 25 1 6 18 64 37 130 72 255 115 452 142 655 3 19 8 55 11 80 4 25 8 61
9 80 2 19 6 53 9 75 27 201 28 823 1 995 -2 14 -7 50 -10 80 -10 87 -13 110
-25 190 -16 100 -17 106 -30 170 -6 30 -13 69 -16 85 -10 61 -84 342 -110 425
-15 47 -29 88 -30 93 -1 4 -2 8 -4 10 -1 1 -3 10 -5 19 -5 27 -83 231 -142
371 -72 173 -212 453 -279 558 -13 21 -24 41 -24 43 0 3 -13 24 -29 48 -15 24
-50 77 -76 118 -46 71 -202 289 -214 300 -3 3 -19 23 -35 45 -16 22 -43 56
-60 75 -17 20 -51 60 -76 90 -116 140 -354 380 -510 516 -117 102 -111 97
-235 193 -49 39 -96 76 -103 82 -46 39 -340 230 -459 298 -131 75 -482 251
-502 251 -4 0 -21 6 -37 14 -99 47 -407 162 -502 187 -4 1 -11 3 -17 5 -19 7
-173 47 -265 69 -53 13 -312 64 -345 69 -22 3 -71 10 -110 15 -91 14 -134 19
-225 26 -41 4 -88 9 -105 11 -36 6 -610 15 -616 10z"/>
</g>
</svg>
